<svg xmlns="http://www.w3.org/2000/svg" viewBox="0 0 512 512" id="trust">
  <path fill="#fbbf7d" d="M154.93176,401.01114,133.0805,379.15987A100.22651,100.22651,0,0,1,104.02,300.60205v0L195.944,208.67807h0a100.22654,100.22654,0,0,1,78.55783,29.06046l21.85126,21.85126,67.3146,72.50731L228.05365,477.88925Z"></path>
  <path fill="#fbbf7d" d="M296.35312 259.58978l96.16654 96.16654a25 25 0 0 1 0 35.3553l0 0a25 25 0 0 1-35.3553 0l-53.74013-53.74013M303.42419 337.37153l53.74013 53.74013a25 25 0 0 1 0 35.3553l0 0a25 25 0 0 1-35.35531 0l-53.74013-53.74013"></path>
  <path fill="#fbbf7d" d="M303.42419,337.37153l53.74013,53.74013a25,25,0,0,1,0,35.3553l0,0a25,25,0,0,1-35.35531,0l-53.74013-53.74013"></path>
  <path fill="#f9b15e" d="M357.16431 411.46692v.00012a25.0001 25.0001 0 0 1-35.35535 0l-46.24011-46.24023h0a10.60661 10.60661 0 0 0 0 15L321.809 426.467a25.0001 25.0001 0 0 0 35.35535 0v-.00012a24.99192 24.99192 0 0 0 6.16943-25.17761A24.88307 24.88307 0 0 1 357.16431 411.46692zM392.52469 376.11156v.00013a25.0001 25.0001 0 0 1-35.35535 0l-46.24011-46.24024h0a10.6066 10.6066 0 0 0 0 15l46.24012 46.24024a25.0001 25.0001 0 0 0 35.35535 0v-.00013a24.99191 24.99191 0 0 0 6.16943-25.17761A24.88284 24.88284 0 0 1 392.52469 376.11156z"></path>
  <path fill="#fbbf7d" d="M268.06885,372.72687,321.809,426.467a25,25,0,0,1,0,35.3553l0,0a25,25,0,0,1-35.35531,0L232.71351,408.0822"></path>
  <path fill="#f9b15e" d="M321.809,446.82227h0a24.99988,24.99988,0,0,1-35.35535,0l-46.24011-46.24h0a10.60659,10.60659,0,0,0,0,15l46.24011,46.24a24.99988,24.99988,0,0,0,35.35535,0h0a24.99124,24.99124,0,0,0,6.16931-25.17762A24.87981,24.87981,0,0,1,321.809,446.82227Z"></path>
  <path fill="#fbbf7d" d="M232.71351,408.0822l53.74013,53.74014a25,25,0,0,1,0,35.3553l0,0a25,25,0,0,1-35.35531,0l-96.16654-96.16654"></path>
  <path fill="#f9b15e" d="M286.45361,482.17761v.00012a25.00016,25.00016,0,0,1-35.35522,0l-79.66663-79.66662-16.5-1.5,96.16663,96.16662a25.00016,25.00016,0,0,0,35.35522,0v-.00012A24.99192,24.99192,0,0,0,292.62305,472,24.883,24.883,0,0,1,286.45361,482.17761Z"></path>
  <path fill="#2370b5" d="M192.76,211.86,107.2,297.41992a29.98428,29.98428,0,0,1-42.41992,0L56.84009,289.48,7.5,240.14,116.73,95.66992l76.03,73.76a29.2115,29.2115,0,0,1,2.51,2.86011A29.98363,29.98363,0,0,1,192.76,211.86Z"></path>
  <path fill="#fdd8ae" d="M209.38727,434.6258h.00005a25,25,0,0,1,25,25v23.28411a25,25,0,0,1-25,25h-.00005a25,25,0,0,1-25-25V459.62578a25,25,0,0,1,25-25Z" transform="rotate(45 209.387 471.268)"></path>
  <path fill="#fdd8ae" d="M174.03194,399.27046h.00005a25,25,0,0,1,25,25v23.28411a25,25,0,0,1-25,25h0a25,25,0,0,1-25-25V424.27044A25,25,0,0,1,174.03194,399.27046Z" transform="rotate(45 174.032 435.912)"></path>
  <path fill="#fdd8ae" d="M138.6766,363.91512h.00005a25,25,0,0,1,25,25v23.28411a25,25,0,0,1-25,25h-.00005a25,25,0,0,1-25-25V388.9151A25,25,0,0,1,138.6766,363.91512Z" transform="rotate(45 138.677 400.557)"></path>
  <path fill="#fdd8ae" d="M103.32126,328.55978h.00005a25,25,0,0,1,25,25v23.28411a25,25,0,0,1-25,25h-.00005a25,25,0,0,1-25-25V353.55976a25,25,0,0,1,25-25Z" transform="rotate(45 103.321 365.202)"></path>
  <path fill="#fdd8ae" d="M312.10211,200.47534H293.01227a45.69405,45.69405,0,0,0-34.05322,15.22608l-59.311,66.29223a15.79809,15.79809,0,0,0,.60254,21.70459,35.0559,35.0559,0,0,0,49.57617,0l45.31739-45.31738q40.98926,40.9889,81.978,81.97778a103.543,103.543,0,0,0,41.40137-51.49Q365.31306,244.67212,312.10211,200.47534Z"></path>
  <path fill="#e4222e" d="M504.5,240.14l-48.72,48.72L447.22,297.41992a29.98428,29.98428,0,0,1-42.41992,0L319.24,211.86a29.99673,29.99673,0,0,1,0-42.43006l9.78-9.85986L392.46,95.66992Z"></path>
  <path fill="#c0232c" d="M455.78,288.86,447.22,297.41992a29.98428,29.98428,0,0,1-42.41992,0L319.24,211.86a29.99673,29.99673,0,0,1,0-42.43006l9.78-9.85986.11-.03Z"></path>
  <path fill="#1067ae" d="M192.76,211.86,107.2,297.41992a29.98428,29.98428,0,0,1-42.41992,0L56.84009,289.48l126.49-129.14L195.27,172.29A29.98363,29.98363,0,0,1,192.76,211.86Z"></path>
  <circle cx="256" cy="113.772" r="106.272" fill="#e1e1e3"></circle>
  <path fill="#c8c5cc" d="M256,7.5a106.52336,106.52336,0,0,0-18.03589,1.538,106.27691,106.27691,0,0,1,0,209.46912A106.2742,106.2742,0,1,0,256,7.5Z"></path>
  <path fill="#57565c" d="M256,227.54492A113.77246,113.77246,0,1,1,369.77246,113.77246,113.90127,113.90127,0,0,1,256,227.54492ZM256,15a98.77246,98.77246,0,1,0,98.77246,98.77246A98.88425,98.88425,0,0,0,256,15Z"></path>
  <path fill="#24b378" d="M256,178.11065a92.29093,92.29093,0,0,1-32.00036-23.99385c-12.60167-14.82447-19.26008-32.56276-19.26008-51.30231V69.54421a88.21054,88.21054,0,0,0,39.07351-11.44087A80.48515,80.48515,0,0,0,256,49.43435a80.48515,80.48515,0,0,0,12.18693,8.669,88.21108,88.21108,0,0,0,39.07351,11.44087v33.27028c0,18.73955-6.65841,36.47784-19.25564,51.29724A92.30288,92.30288,0,0,1,256,178.11065Z"></path>
  <path fill="#3c3b41" d="M252.88232,184.93213a7.49882,7.49882,0,0,0,6.23487,0,100.22371,100.22371,0,0,0,34.60254-25.96289c13.76465-16.19434,21.041-35.61231,21.041-56.15479v-33.27a7.49957,7.49957,0,0,0-7.05859-7.48681,81.39606,81.39606,0,0,1-35.75-10.44043,73.33579,73.33579,0,0,1-11.05371-7.86182,7.50011,7.50011,0,0,0-9.79737,0,73.2069,73.2069,0,0,1-11.05273,7.86133,81.398,81.398,0,0,1-35.75,10.44092,7.49957,7.49957,0,0,0-7.05859,7.48681v33.27c0,20.54346,7.27734,39.96338,21.043,56.15674A100.20918,100.20918,0,0,0,252.88232,184.93213Zm-40.64257-108.564a94.76342,94.76342,0,0,0,35.33789-11.77783A88.80548,88.80548,0,0,0,256,59.03906a88.82876,88.82876,0,0,0,8.42188,5.55127,94.76221,94.76221,0,0,0,35.33886,11.77783v26.44629c0,16.93555-6.041,32.99414-17.47265,46.44287A84.69358,84.69358,0,0,1,256,169.78955a84.68542,84.68542,0,0,1-26.28613-20.53027c-11.43164-13.44824-17.47412-29.5083-17.47412-46.44483Zm297.564,158.46875a7.5005,7.5005,0,0,0-10.60742,0l-43.3606,43.3606L352.99036,173.18311A113.029,113.029,0,0,0,368.552,130.39246l29.23023-29.43787A7.50028,7.50028,0,0,0,387.1377,90.38525l-17.51,17.63428A113.76941,113.76941,0,0,0,142.296,110.02124L121.95215,90.28662a7.50007,7.50007,0,0,0-10.44434,10.7666l32.2533,31.28736a113.07623,113.07623,0,0,0,15.73132,41.61535L56.79028,278.82373,12.80322,234.83691A7.49989,7.49989,0,1,0,2.19678,245.44336l48.0227,48.02246a7.28883,7.28883,0,0,0,2.65088,2.65064l6.60425,6.60424A37.233,37.233,0,0,0,85.99023,313.71a37.64339,37.64339,0,0,0,10.318-1.44055A106.90747,106.90747,0,0,0,97.96509,327.448a32.34031,32.34031,0,0,0-9.39234,6.54028L72.1084,350.45312a32.501,32.501,0,0,0,22.981,55.48145c1.01147,0,2.01513-.05054,3.01025-.14136A32.47758,32.47758,0,0,0,130.44434,441.29c1.00659,0,2.00537-.05029,2.9956-.14026-.08984.99011-.14014,1.9884-.14014,2.99475a32.47257,32.47257,0,0,0,32.5,32.48438q1.50019,0,2.99683-.1399c-.09094.99537-.14136,1.99915-.14136,3.011a32.28621,32.28621,0,0,0,9.519,22.98047v.001a32.53891,32.53891,0,0,0,45.96191,0l10.8291-10.82959,10.83155,10.83154a32.4843,32.4843,0,0,0,55.3208-25.99536q1.50348.1388,3.01416.14087a32.47506,32.47506,0,0,0,32.5-32.48438c0-1.00635-.0503-2.00464-.14014-2.99463.99.08985,1.98828.14014,2.99463.14014a32.50336,32.50336,0,0,0,32.501-32.501c0-1.00659-.05029-2.00537-.14025-2.9956.99011.08984,1.9884.14013,2.99475.14013a32.5,32.5,0,0,0,22.98144-55.48144l-9.08948-9.08936a109.86248,109.86248,0,0,0,26.629-29.18432,37.62761,37.62761,0,0,0,10.647,1.53149,37.23446,37.23446,0,0,0,26.51367-10.98633l57.28027-57.28027A7.50022,7.50022,0,0,0,509.80371,234.83691ZM158.24817,127.94275c-.011-.10767-.02942-.21436-.045-.32166A98.77753,98.77753,0,1,1,337.2312,169.89465c-.01636.02393-.03332.04737-.04944.07141a98.73871,98.73871,0,0,1-178.93359-42.02331ZM85.99023,298.71A22.33581,22.33581,0,0,1,70.083,292.11621L67.398,289.43115l101.0061-103.13672a114.75272,114.75272,0,0,0,20.22022,19.095L101.8894,292.12378A22.33505,22.33505,0,0,1,85.99023,298.71Zm21.47266,87.09863a17.49833,17.49833,0,0,1-24.74805,0v-.001a17.49954,17.49954,0,0,1,0-24.748L99.1792,344.5957a17.49968,17.49968,0,1,1,24.74853,24.748ZM130.44434,426.29a17.38949,17.38949,0,0,1-12.37452-5.126v-.001a17.5199,17.5199,0,0,1,0-24.74805l16.46436-16.46484a17.5002,17.5002,0,0,1,24.749,24.749l-16.46435,16.46484A17.38948,17.38948,0,0,1,130.44434,426.29Zm22.98095,30.22851a17.4995,17.4995,0,0,1,0-24.748l16.46436-16.46485a17.5002,17.5002,0,0,1,24.749,24.749l-16.46435,16.46386A17.51841,17.51841,0,0,1,153.42529,456.51855Zm76.56885,18.89063L213.52979,491.874a17.51841,17.51841,0,0,1-24.749,0v.001a17.50068,17.50068,0,0,1,0-24.749l16.46436-16.46485a17.49986,17.49986,0,0,1,24.749,24.748ZM392.34277,373.43359a17.50021,17.50021,0,0,1-29.875,12.374l-53.74023-53.74024a7.50058,7.50058,0,1,0-10.60742,10.60742L351.86035,396.415a17.49951,17.49951,0,1,1-24.748,24.74805l-53.73925-53.74024a7.50058,7.50058,0,0,0-10.60743,10.60742l53.73926,53.74024a17.49916,17.49916,0,1,1-24.74707,24.748L238.0166,402.77832a7.50075,7.50075,0,1,0-10.60986,10.60547L281.14648,467.124a17.49917,17.49917,0,1,1-24.74316,24.752l-11.374-11.374a32.50272,32.50272,0,0,0-27.40967-49.96679c-1.00659,0-2.00537.05029-2.99561.14026.08985-.99012.14014-1.98841.14014-2.99476a32.50255,32.50255,0,0,0-32.5-32.501c-1.00659,0-2.00537.05029-2.99561.14026.08985-.99012.14014-1.98841.14014-2.99475a32.50255,32.50255,0,0,0-32.5-32.501c-1.00659,0-2.00537.05029-2.9956.14026.08984-.99011.14013-1.98841.14013-2.99475a32.45669,32.45669,0,0,0-31.38855-32.45752,92.25757,92.25757,0,0,1-1.33606-20.61475l1.167-1.167.01025-.00977.00452-.005,88.7323-88.73181c.10888-.10889.20556-.22522.30639-.33911a112.91994,112.91994,0,0,0,37.84009,12.68408l-45.32959,50.66137a23.3143,23.3143,0,0,0,.88721,32.01368,42.60779,42.60779,0,0,0,60.187-.001l40.00793-40.01746,92.0741,92.0741A17.38442,17.38442,0,0,1,392.34277,373.43359Zm2.416-58.38086a96.0554,96.0554,0,0,1-16.74341,15.5918l-76.35815-76.35791a7.03261,7.03261,0,0,1-1.21485-1.21045,7.49844,7.49844,0,0,0-10.60644.001l-45.30908,45.31933a27.58994,27.58994,0,0,1-38.97315.001,8.30682,8.30682,0,0,1-.31445-11.40625l53.21728-59.47754a113.01792,113.01792,0,0,0,52.2583-14.0166,37.86254,37.86254,0,0,0,3.22168,3.666l85.55762,85.55761c.83.83081,1.69482,1.61353,2.58618,2.35572A95.45916,95.45916,0,0,1,394.75879,315.05273Zm47.15527-22.93359a22.48354,22.48354,0,0,1-31.81054-.00293L324.543,206.55615c-.38892-.38891-.75208-.79687-1.10925-1.209a114.74914,114.74914,0,0,0,20.72607-19.7428L445.22815,288.80505Z"></path>
</svg>
