<svg class="svg-icon" style="width: 1em; height: 1em;vertical-align: middle;fill: currentColor;overflow: hidden;" viewBox="0 0 1024 1024" version="1.1" xmlns="http://www.w3.org/2000/svg"><path d="M704.612 615.267c2.563-0.439 3.384-2.267 4.557-3.569 31.441-34.916 62.748-69.955 94.756-104.357 14.373-15.448 31.983-24 53.218-22.943 27.307 1.357 47.554 14.667 58.824 39.572 11.1 24.524 8.329 48.669-8.72 69.447q-76.56 93.3-155.841 184.328c-22.675 25.887-51.867 38.655-85.515 42.482a184.406 184.406 0 0 1-20.954 0.829q-104.73-0.032-209.459-0.011c-6.883 0-11.228 4.3-11.237 11.189a28.387 28.387 0 0 1-7.844 19.934c-1.853 1.987-2.354 3.13-0.573 5.729 8.533 12.45 7.166 27.518-3.4 38.361-10.115 10.384-20.446 20.557-30.724 30.782-14 13.926-31.523 13.995-45.471 0.065q-65.086-65-130.093-130.071-32.167-32.167-64.33-64.339c-14.642-14.665-14.647-31.909-0.047-46.543q14.476-14.51 28.991-28.981c11.99-11.912 26.123-13.472 40.239-4.288 1.975 1.285 2.93 1.122 4.549-0.4 7.844-7.36 17.143-10.037 27.626-7.532 3.259 0.779 4.53-1.2 6.224-2.932 26.054-26.59 53.519-51.539 84.6-72.226 24.529-16.327 50.4-29.879 79.617-35.618 32.1-6.3 63.623-3.579 94.335 7.651a50.648 50.648 0 0 0 17.992 3.262c39.491-0.208 78.984-0.2 118.475-0.362 22.861-0.093 41.117 8.529 53.46 28.164 7.815 12.434 10.033 27.419 6.745 42.377zM340.087 809.31c-1.324-1.267-2.671-2.511-3.968-3.8q-67.24-67.11-134.473-134.21c-6-5.984-11.112-5.976-17.173 0.06q-14.17 14.113-28.287 28.279c-7.394 7.4-7.377 11.946 0.1 19.412q67.229 67.113 134.475 134.208c1.054 1.051 2.229 1.98 3.348 2.967q20.21 20.414 40.406 40.842c5.82 5.918 10.742 12.711 17.469 17.747 5.35 4.005 10.218 3.792 15.049-1q15.439-15.312 30.749-30.754c5.094-5.144 5.018-10.594 0.034-15.611q-28.87-29.064-57.729-58.14z m541.05-296.882c-1.685-1.059-3.3-2.262-5.066-3.156-19.4-9.816-41.392-5.528-57.244 11.476-43.3 46.446-85.675 93.732-127.631 141.385-10.7 12.147-23.164 17.453-38.99 17.4-42.5-0.14-85 0.154-127.494 0.229a38.09 38.09 0 0 1-7.942-0.659c-9.35-1.989-15.367-8.756-15.831-17.487-0.655-12.316 8.721-21.363 22.323-21.375 41.832-0.037 83.664 0.028 125.5-0.046 18.653-0.033 33.723-13.272 36.982-32.2 2.984-17.333-7.689-34.822-24.844-40.932-7.077-2.521-14.38-2.434-21.71-2.411-38 0.12-76 0.171-113.994 0.392a64.643 64.643 0 0 1-23.849-4.4c-23.793-9.09-48.519-11.41-73.7-8.565-23.569 2.663-44.9 11.907-65.228 23.608-36.868 21.222-68.162 49.35-97.934 79.364-2.643 2.665-1 3.723 0.688 5.405q41.921 41.869 83.811 83.768c4.707 4.7 9.52 9.295 14.285 13.938q24.463 24.643 48.885 49.326c2.461 2.5 3.6 0.411 4.626-1.008 3.248-4.476 7.443-5.6 12.9-5.584 73.992 0.172 147.987 0.411 221.977-0.016 34.355-0.2 64.121-11.952 86.952-38.762 16.851-19.789 34.039-39.291 50.8-59.159 33.62-39.862 66.882-80.027 100.619-119.789 18.88-22.264 15.172-54.147-8.891-70.742z m-476.963 320.01c-0.041-5.324-3.479-8.175-6.511-11.209q-73.318-73.367-146.675-146.7c-2.473-2.473-4.939-4.961-7.532-7.305-3.185-2.881-6.775-4.088-10.976-2.158-4.93 2.265-5.2 3.46-1.465 7.2q82.529 82.534 165.066 165.065c3.72 3.719 4.941 3.443 7.191-1.5a7.227 7.227 0 0 0 0.902-3.393z" fill="#343741" /><path d="M648.122 510.2q-34.223 0-68.446-0.006c-23.951-0.032-37.761-19.609-29.653-42.209q11.945-33.295 24.228-66.467c5.2-14.106 15.468-21.271 30.415-21.3q43.466-0.078 86.932 0c14.724 0.026 25.151 7.109 30.251 20.833 8.445 22.727 16.829 45.48 24.944 68.327 7.336 20.653-6.728 40.428-28.725 40.818-0.333 0.006-0.666 0-1 0z m13.994-20.158c18.982 0.054 37.965 0.179 56.947 0.125a9.648 9.648 0 0 0 9.329-13.061q-12.5-35.085-25.444-70.015c-1.53-4.151-4.554-6.91-9.386-6.893q-27.224 0.093-54.448 0.179c-11.992-0.056-23.984-0.149-35.976-0.148a9.617 9.617 0 0 0-9.578 6.713c-8.568 23.238-17.11 46.487-25.43 69.815-2.492 6.986 2.118 13.374 9.525 13.391 28.155 0.071 56.308-0.048 84.461-0.103zM417.847 510.2q-34.223 0-68.446-0.008c-23.371-0.04-37.413-19.6-29.616-41.524 8.012-22.531 16.256-44.982 24.553-67.41 5.168-13.971 15.549-21.021 30.6-21.042q43.216-0.06 86.432 0c15.032 0.022 25.379 7.1 30.564 21.1 8.362 22.581 16.69 45.177 24.784 67.855 7.461 20.9-6.627 40.843-28.929 41-23.311 0.155-46.627 0.029-69.942 0.029z m14.271-20.158c18.974 0.054 37.949 0.186 56.923 0.124 7.229-0.024 11.723-6.506 9.221-13.49Q485.854 442.042 473 407.565c-1.417-3.779-4.1-7.341-8.971-7.341-18.308 0-36.616 0.1-54.924 0.155-11.994-0.056-23.987-0.153-35.981-0.149-4.93 0-8.175 2.7-9.806 7.154-8.474 23.108-16.946 46.218-25.211 69.4-2.481 6.96 2.137 13.356 9.537 13.371 28.161 0.058 56.318-0.055 84.475-0.111zM528.146 356.2q-34.223 0-68.446-0.006c-23.956-0.031-37.785-19.6-29.684-42.187q11.942-33.3 24.228-66.468c5.256-14.265 15.532-21.308 30.9-21.326q42.966-0.051 85.933 0c15.611 0.018 25.679 7.064 31.075 21.766q12.187 33.208 24.241 66.465c7.878 21.862-6.014 41.645-29.3 41.736-22.983 0.093-45.965 0.02-68.947 0.02z m-9.031-109.823c-11.992-0.056-23.984-0.149-35.976-0.148a9.617 9.617 0 0 0-9.579 6.713c-8.568 23.238-17.11 46.487-25.43 69.815-2.492 6.986 2.118 13.374 9.526 13.391 28.153 0.068 56.306-0.055 84.46-0.106 18.982 0.054 37.965 0.179 56.947 0.125a9.648 9.648 0 0 0 9.329-13.061q-12.5-35.085-25.444-70.015c-1.53-4.151-4.554-6.91-9.386-6.893q-27.223 0.096-54.447 0.181zM639.153 232.5c-7.461-0.147-11.87-2.827-14.566-7.929a14.421 14.421 0 0 1 0.707-15.188 17.974 17.974 0 0 1 2.529-3.083c16.008-16.037 31.945-32.146 48.1-48.036 8.969-8.822 22.058-5.806 25.578 5.63a13.673 13.673 0 0 1-3.362 14.335q-24.939 25.247-50.157 50.211c-2.819 2.803-6.37 4.203-8.829 4.06zM433.412 216.173c-0.113 7.381-2.758 11.808-7.851 14.533a14.4 14.4 0 0 1-15.188-0.627 17.637 17.637 0 0 1-3.1-2.512c-16.154-16.126-32.41-32.154-48.375-48.466-8.641-8.829-5.148-22.276 6.3-25.417a14.07 14.07 0 0 1 14.28 3.766q25.021 24.811 49.829 49.835c2.814 2.823 4.206 6.364 4.105 8.888zM338.187 342.2c-11.146 0-22.292 0.042-33.438-0.013-9.789-0.048-16.479-6.07-16.588-14.8-0.111-8.933 6.663-15.151 16.718-15.17q33.188-0.064 66.377 0c10.119 0.017 16.877 6.12 16.837 15.051s-6.788 14.89-16.966 14.925c-10.98 0.039-21.96 0.007-32.94 0.007zM718.113 342.2c-11.146 0-22.292 0.045-33.438-0.013-9.757-0.051-16.448-6.133-16.514-14.873s6.631-15.063 16.292-15.089q33.687-0.091 67.375 0c9.649 0.027 16.347 6.359 16.264 15.116-0.084 8.739-6.771 14.8-16.541 14.846-11.145 0.059-22.292 0.013-33.438 0.013zM543.125 137.74c0 10.98 0.047 21.96-0.014 32.939-0.054 9.751-6.153 16.439-14.9 16.491s-15.041-6.644-15.066-16.316q-0.089-33.687 0-67.375c0.027-9.639 6.381-16.338 15.139-16.242 8.563 0.094 14.745 6.7 14.815 16.066 0.09 11.479 0.025 22.959 0.026 34.437z" fill="#343741" /><path d="M363.268 758.161c-4.764-4.643-9.578-9.237-14.285-13.938q-41.92-41.87-83.811-83.768c-1.684-1.682-3.332-2.74-0.688-5.405 29.773-30.014 61.067-58.142 97.934-79.364 20.327-11.7 41.659-20.945 65.228-23.608 25.18-2.845 49.906-0.524 73.7 8.565a64.643 64.643 0 0 0 23.849 4.4c38-0.221 76-0.272 113.994-0.392 7.33-0.023 14.633-0.11 21.71 2.411 17.155 6.11 27.827 23.6 24.844 40.932-3.259 18.929-18.329 32.168-36.982 32.2-41.832 0.074-83.664 0.009-125.5 0.046-13.6 0.012-22.977 9.059-22.323 21.375 0.464 8.73 6.481 15.5 15.831 17.487a38.09 38.09 0 0 0 7.942 0.659c42.5-0.075 85-0.37 127.494-0.229 15.826 0.052 28.294-5.254 38.99-17.4 41.956-47.653 84.333-94.939 127.631-141.385 15.852-17 37.84-21.293 57.244-11.476 1.768 0.895 3.381 2.1 5.065 3.156 0.139 1.621-0.688 2.758-1.652 4-4.885 6.278-9.579 12.7-14.474 18.975-13.768 17.634-27.368 35.406-41.479 52.763-12.33 15.17-24.92 30.145-37.608 45.035q-19.707 23.13-40.631 45.118c-10.508 11.105-21.376 21.9-32.753 32.188-13.574 12.28-27.5 24.039-43.052 33.685-9.161 5.683-18.8 10.474-29.764 12.079-17.583 2.575-35.334 2.667-53 3.755-17.408 1.072-34.894 0.209-52.365 0.937-16.241 0.677-32.553 0.4-48.868-0.554-23.072-1.343-46.219 0.193-69.364-0.949-17.578-0.865-35.242-0.611-52.857-1.298z" fill="#FEE8CC" /><path d="M363.268 758.161c17.615 0.687 35.279 0.433 52.853 1.3 23.145 1.142 46.292-0.394 69.364 0.949 16.315 0.95 32.627 1.231 48.868 0.554 17.471-0.728 34.957 0.135 52.365-0.937 17.669-1.088 35.421-1.18 53-3.755 10.968-1.606 20.6-6.4 29.764-12.079 15.55-9.647 29.478-21.406 43.052-33.685 11.377-10.292 22.245-21.083 32.753-32.188q20.856-22.041 40.631-45.118c12.688-14.891 25.275-29.866 37.61-45.039 14.111-17.357 27.711-35.129 41.479-52.763 4.9-6.27 9.589-12.7 14.474-18.975 0.964-1.239 1.792-2.375 1.652-4 24.058 16.6 27.771 48.478 8.881 70.741-33.737 39.762-67 79.927-100.619 119.789-16.756 19.868-33.944 39.371-50.8 59.159-22.831 26.81-52.6 38.564-86.952 38.762-73.99 0.426-147.985 0.187-221.977 0.016-5.452-0.013-9.647 1.107-12.9 5.584-1.03 1.419-2.165 3.511-4.626 1.008q-24.331-24.757-48.872-49.323z" fill="#FEDFB8" /><path d="M294.111 856.224c-1.119-0.986-2.294-1.915-3.348-2.967q-67.249-67.093-134.475-134.208c-7.479-7.466-7.5-12.012-0.1-19.412q14.136-14.147 28.287-28.279c6.061-6.037 11.177-6.044 17.173-0.06q67.239 67.1 134.472 134.208c1.3 1.294 2.644 2.538 3.968 3.8-0.419 3.148-3.172 4.529-5.093 6.447-13.57 13.547-27.244 26.994-40.884 40.471z" fill="#717B9A" /><path d="M294.111 856.224c13.64-13.476 27.314-26.919 40.883-40.467 1.921-1.918 4.674-3.3 5.093-6.447q28.864 29.071 57.731 58.139c4.984 5.017 5.06 10.468-0.034 15.611q-15.3 15.45-30.749 30.754c-4.831 4.791-9.7 5-15.049 1-6.727-5.036-11.649-11.83-17.469-17.747q-20.143-20.481-40.406-40.843z" fill="#5A6286" /><path d="M404.174 832.438a7.227 7.227 0 0 1-0.9 3.4c-2.25 4.941-3.472 5.217-7.191 1.5Q313.544 754.8 231.015 672.266c-3.736-3.736-3.464-4.932 1.465-7.2 4.2-1.93 7.791-0.723 10.976 2.158 2.592 2.345 5.058 4.833 7.532 7.305q73.349 73.336 146.675 146.7c3.037 3.034 6.471 5.885 6.511 11.209z" fill="#FEFEFE" /><path d="M662.116 490.045c-28.153 0.051-56.307 0.174-84.46 0.106-7.408-0.018-12.017-6.405-9.525-13.391 8.32-23.328 16.861-46.577 25.43-69.815a9.617 9.617 0 0 1 9.578-6.713c11.992 0 23.984 0.092 35.976 0.148a32.612 32.612 0 0 0 0.563 3.9c4.972 18.676 10.174 37.293 14.9 56.029 2.507 9.915 5.927 19.599 7.538 29.736z" fill="#FEE180" /><path d="M662.116 490.045c-1.611-10.137-5.032-19.821-7.534-29.734-4.73-18.736-9.932-37.353-14.9-56.029a32.612 32.612 0 0 1-0.563-3.9l54.448-0.179c4.832-0.017 7.856 2.742 9.386 6.893q12.883 34.948 25.444 70.015a9.648 9.648 0 0 1-9.329 13.061c-18.987 0.052-37.968-0.072-56.952-0.127z" fill="#F3D87B" /><path d="M432.119 490.044c-28.157 0.052-56.313 0.169-84.47 0.112-7.4-0.015-12.018-6.411-9.537-13.371 8.265-23.183 16.737-46.293 25.211-69.4 1.632-4.449 4.876-7.152 9.806-7.154 11.994 0 23.987 0.093 35.981 0.149a32.971 32.971 0 0 0 0.568 3.9c4.972 18.675 10.173 37.293 14.9 56.028 2.507 9.916 5.922 19.601 7.541 29.736z" fill="#F5715A" /><path d="M432.119 490.044c-1.618-10.135-5.033-19.821-7.537-29.733-4.732-18.736-9.933-37.353-14.9-56.028a32.971 32.971 0 0 1-0.568-3.9c18.308-0.059 36.616-0.154 54.924-0.155 4.872 0 7.553 3.562 8.971 7.341q12.921 34.447 25.258 69.113c2.5 6.984-1.992 13.467-9.221 13.49-18.978 0.059-37.953-0.072-56.927-0.128z" fill="#ED654E" /><path d="M542.116 336.045c-28.153 0.051-56.307 0.174-84.46 0.106-7.408-0.018-12.017-6.406-9.526-13.391 8.32-23.328 16.862-46.577 25.43-69.815a9.617 9.617 0 0 1 9.579-6.713c11.992 0 23.984 0.092 35.976 0.148a32.613 32.613 0 0 0 0.563 3.9c4.971 18.676 10.174 37.293 14.9 56.029 2.507 9.915 5.927 19.599 7.538 29.736z" fill="#FEE180" /><path d="M542.116 336.045c-1.611-10.137-5.032-19.821-7.534-29.734-4.73-18.736-9.932-37.353-14.9-56.029a32.613 32.613 0 0 1-0.563-3.9l54.448-0.179c4.832-0.017 7.856 2.742 9.386 6.893q12.883 34.948 25.444 70.015a9.648 9.648 0 0 1-9.329 13.061c-18.987 0.052-37.968-0.072-56.952-0.127z" fill="#F3D87B" /></svg>